<?xml version="1.0" encoding="utf-8"?>
<svg viewBox="219.289 151.35 117.926 103.8" width="117.926" height="103.8" xmlns="http://www.w3.org/2000/svg">
  <defs>
    <linearGradient gradientUnits="userSpaceOnUse" x1="278.379" y1="156.185" x2="278.379" y2="250.646" id="gradient-1" spreadMethod="pad" gradientTransform="matrix(0.83859, 0.544762, -0.282084, 0.43423, 108.520528, -17.71525)">
      <stop offset="0" style="stop-color: rgb(254, 221, 75);"/>
      <stop offset="1" style="stop-color: rgba(146, 124, 28, 1)"/>
    </linearGradient>
  </defs>
  <path style="stroke: rgb(0, 0, 0); fill: url(#gradient-1); stroke-width: 3px; stroke-linejoin: round;" d="M 241.513 200.471 L 248.109 216.725 L 253.056 228.503 L 256.354 236.748 L 261.301 244.05 L 267.19 248.762 L 273.786 250.411 L 279.91 250.646 L 285.093 249.94 L 289.804 248.997 L 294.751 245.464 L 296.871 242.401 L 299.698 237.69 L 306.529 223.556 L 312.654 208.245 L 314.774 203.298 L 315.439 198.309 L 319.956 198.031 L 325.61 195.829 L 329.059 192.211 L 330.667 188.72 L 331.97 185.63 L 331.97 182.568 L 330.792 178.564 L 328.672 175.737 L 325.374 174.088 L 322.312 172.91 L 318.778 172.439 L 314.538 172.674 L 309.299 172.869 L 308.649 176.679 L 308.414 172.91 L 306.765 170.083 L 304.409 166.785 L 301.582 164.43 L 298.755 162.31 L 296.164 160.425 L 292.866 158.776 L 287.684 156.892 L 283.679 156.185 L 278.968 156.185 L 274.257 156.185 L 268.368 157.363 L 264.599 159.012 L 260.83 160.661 L 256.825 164.194 L 253.998 166.785 L 250.7 170.083 L 247.873 173.381 L 245.754 178.564 L 247.944 173.7 L 241.513 172.203 L 238.215 172.203 L 234.917 172.203 L 231.855 173.146 L 228.793 174.794 L 226.673 177.15 L 225.26 180.448 L 224.788 183.981 L 224.788 187.515 L 226.202 191.048 L 227.615 192.933 L 229.735 195.289 L 233.268 196.938 L 236.095 197.644 L 238.686 197.88 L 241.984 201.413"/>
  <path style="stroke: rgb(0, 0, 0); stroke-width: 3px; stroke-linejoin: round;" d="M 293.979 184.878 L 295.34 184.878 L 296.942 186.64 L 296.782 188.081 L 295.661 189.042 L 294.059 189.042 L 293.098 188.802 L 292.858 186.4 L 293.979 184.878 Z"/>
  <path style="stroke: rgb(0, 0, 0); stroke-linejoin: round; fill: rgba(216, 216, 216, 0); stroke-linecap: round; stroke-width: 3px;" d="M 269.145 205.688 C 270.959 221.384 293.782 216.557 291.879 205.411"/>
  <path style="stroke: rgb(0, 0, 0); stroke-width: 3px; stroke-linejoin: round;" d="M 266.347 184.737 L 267.708 184.737 L 269.31 186.499 L 269.15 187.94 L 268.029 188.901 L 266.427 188.901 L 265.466 188.661 L 265.226 186.259 L 266.347 184.737 Z" transform="matrix(-0.017452, -0.999848, 0.999848, -0.017452, 85.141823, 457.306671)"/>
</svg>