<?xml version="1.0" encoding="utf-8"?>
<svg viewBox="133.038 130.183 112.876 101.457" width="112.876" height="101.457" xmlns="http://www.w3.org/2000/svg">
  <g transform="matrix(0.1, 0, 0, -0.1, 130.306534, 238.12468)" fill="#000000" stroke="none">
    <path d="M477 1046 c-52 -19 -104 -55 -158 -110 -43 -44 -47 -46 -74 -36 -39 15 -95 4 -143 -27 -43 -28 -57 -50 -67 -106 -16 -82 35 -154 127 -181 35 -11 42 -18 64 -72 14 -32 34 -84 45 -114 11 -30 42 -101 69 -156 62 -124 95 -151 205 -167 85 -12 168 8 215 51 37 34 96 139 121 214 11 31 39 100 63 152 36 77 49 96 66 96 76 0 147 84 137 166 -10 97 -86 153 -189 141 l-53 -7 -60 59 c-81 78 -157 111 -256 111 -41 -1 -91 -7 -112 -14z m209 -48 c57 -18 78 -33 136 -90 37 -38 68 -75 68 -82 0 -8 6 -19 14 -25 22 -18 59 4 51 30 -6 17 -1 19 35 19 49 0 99 -26 106 -56 3 -11 4 -42 2 -69 -3 -43 -7 -51 -35 -68 -17 -10 -50 -19 -73 -20 -40 -2 -42 -4 -60 -52 -63 -176 -153 -372 -187 -411 -48 -54 -124 -73 -215 -55 -45 10 -61 19 -86 49 -35 45 -92 155 -128 250 -57 148 -74 198 -74 214 0 15 -4 16 -27 7 -38 -14 -79 -2 -108 33 -33 39 -40 71 -25 109 20 47 55 69 111 69 27 0 49 -2 49 -5 0 -4 -7 -20 -17 -38 -14 -29 -15 -31 0 -19 9 8 21 11 26 8 5 -4 25 13 43 36 84 105 153 158 235 177 61 14 88 12 159 -11z" style="fill: rgb(241, 197, 22);"/>
    <path d="M427 764 c-15 -15 -6 -54 14 -65 30 -16 46 2 33 38 -9 27 -33 41 -47 27z" style="fill: rgb(241, 197, 22);"/>
    <path d="M730 740 c0 -27 3 -31 23 -28 16 2 22 10 22 28 0 18 -6 26 -22 28 -20 3 -23 -1 -23 -28z" style="fill: rgb(241, 197, 22);"/>
    <path d="M480 541 c0 -20 9 -37 31 -55 25 -22 41 -26 90 -26 50 0 63 4 88 28 38 35 49 70 25 79 -11 4 -20 1 -22 -6 -11 -33 -43 -51 -88 -51 -38 0 -51 5 -74 30 -35 38 -50 38 -50 1z" style="fill: rgb(241, 197, 22);"/>
  </g>
</svg>