<?xml version="1.0" encoding="utf-8"?>
<!-- Generator: Adobe Illustrator 19.2.1, SVG Export Plug-In . SVG Version: 6.00 Build 0)  -->
<svg version="1.1" id="Layer_1" xmlns="http://www.w3.org/2000/svg" xmlns:xlink="http://www.w3.org/1999/xlink" x="0px" y="0px"
	 viewBox="0 0 425.2 103.3" style="enable-background:new 0 0 425.2 103.3;" xml:space="preserve">
<style type="text/css">
	.st0{fill:#D4793A;}
	.st1{fill:#A0A4A7;}
</style>
<path class="st0" d="M19.7,30.9c-3.6,0-6.1,1.4-6.1,6.2v42.6H0V20.4L11,24c0,0,3.5-3.7,11.6-3.7c10.2,0,16,5.2,16,14.7v44.7H24.9
	V40.2C24.9,37.8,25.4,30.9,19.7,30.9 M165.8,79.7h13.6V2h-13.6V79.7z M187.9,79.7h13.6V20.8h-13.6V79.7z M60.1,57.2v5.1
	c0,4.9,3.1,7.8,9.6,7.8c6.4,0,11.8-1.8,14.2-3.2v11c0,0-6.2,2.4-14,2.4c-15.4,0-23-6.4-23-17.3V35.3c0-8.9,7.4-15,18.9-15
	c11.7,0,19.6,5.4,19.6,14.4v22.5H60.1z M60.1,47.5h12.4V36c0-1.4-1-5.8-6.6-5.8c-3.9,0-5.8,2-5.8,5.8V47.5z M296.9,80.3
	c6.4,0,10.5-1.8,10.5-1.8V67.6c0,0-3.9,2.5-8.5,2.5c-5.3,0-8.4-3.1-8.4-9.3V38.6c0-5.7,3.1-8.3,8.4-8.3c5.2,0,8.5,2.5,8.5,2.5V22.1
	c0,0-3.6-1.8-10.4-1.8c-13.2,0-19.6,7.8-20.1,17.5l0,23.2C276.8,73.8,283.8,80.3,296.9,80.3 M250,80.6l0-42.7
	c0-11.1-5.3-17.6-20.1-17.6c-13.9,0-19.9,7.9-19.9,17v29.5c0,9.9,7.2,13.4,13.4,13.4c5.6,0,8.2-1.1,8.2-1.1v-9.8
	c0,0-1.7,0.7-3.8,0.7c-2.8,0-4.2-2.3-4.2-6V37.5c0-4.5,1.9-7.2,6.2-7.2c4.3,0,6.3,2.4,6.3,6.4l0,42.8c0,5-4,8.2-10,8.2
	c-4,0-8.1-0.8-12.1-2.3v10.6c2.2,0.8,7.1,2.1,12.8,2.1C247.1,98.1,250,85.9,250,80.6 M194.7,0c-4.1,0-7.4,3.3-7.4,7.4
	c0,4.1,3.3,7.4,7.4,7.4s7.4-3.3,7.4-7.4C202.1,3.3,198.8,0,194.7,0z M263.4,42.9c-4.1,0-7.4,3.3-7.4,7.4c0,4.1,3.3,7.4,7.4,7.4
	c4.1,0,7.4-3.3,7.4-7.4C270.8,46.2,267.5,42.9,263.4,42.9z M353.4,35.8v28.8c0,11.1-11.2,15.7-20.1,15.7c-8.9,0-20.1-4.6-20.1-15.7
	V35.8c0-11.1,11.2-15.7,20.1-15.7C342.2,20.2,353.4,24.8,353.4,35.8z M339.7,63.1V37.3c0-3.6-1.5-7-6.5-7c-4.9,0-6.5,3.4-6.5,7v25.8
	c0,3.6,1.5,7,6.5,7C338.2,70.1,339.7,66.7,339.7,63.1z M141.4,20.3c-7.7,0-11.4,4.2-12.1,5c-2.7-2.9-7.3-5-12.8-5
	c-8,0-11.5,3.6-11.6,3.7l-11-3.6v59.4h13.6V37.1c0-4.4,2-6.2,6.1-6.2c5.7,0,5.1,6.9,5.1,9.3v39.5h13.6V37.1c0-4.4,2-6.2,6.1-6.2
	c5.7,0,5.1,6.9,5.1,9.3v39.5h13.6V35.1C157.3,25.6,151.6,20.3,141.4,20.3z M409.3,20.3c-7.7,0-11.4,4.2-12.1,5
	c-2.7-2.9-7.3-5-12.8-5c-8,0-11.5,3.6-11.6,3.7l-11-3.6v59.4h13.6V37.1c0-4.4,2-6.2,6.1-6.2c5.7,0,5.1,6.9,5.1,9.3v39.5h13.6V37.1
	c0-4.4,2-6.2,6.1-6.2c5.7,0,5.1,6.9,5.1,9.3v39.5h13.6V35.1C425.2,25.6,419.5,20.3,409.3,20.3z"/>
<g>
	<g>
		<path class="st1" d="M0,90.2h4.1c3.8,0,6.2,2.5,6.2,6.4c0,3.9-2.5,6.4-6.2,6.4H0V90.2z M4.1,101.6c2.9,0,4.6-1.9,4.6-4.9
			c0-3-1.7-5-4.6-5H1.7v9.9H4.1z"/>
		<path class="st1" d="M19.9,90.2l5,12.9h-1.7l-1.5-3.9h-5.3l-1.5,3.9h-1.7l5-12.9H19.9z M17,97.7h4.2l-2.1-5.5L17,97.7z"/>
		<path class="st1" d="M36.8,100.8v-3H34v-1.4h4.4v5c-1.2,1.4-2.9,1.8-4.5,1.8c-3.6,0-6-2.6-6-6.6c0-4,2.7-6.6,6.2-6.6
			c1.5,0,2.8,0.4,3.7,1.2v1.8c-1.1-1-2.3-1.4-3.7-1.4c-2.7,0-4.6,2-4.6,5.1c0,3.1,1.7,5.2,4.4,5.2C35,101.8,36,101.5,36.8,100.8z"/>
		<path class="st1" d="M43.1,90.2h1.7v11.4h6.6v1.5h-8.2V90.2z"/>
		<path class="st1" d="M57.4,103.1h-1.7V90.2h1.7V103.1z"/>
		<path class="st1" d="M70.8,100.8v-3H68v-1.4h4.4v5c-1.2,1.4-2.9,1.8-4.5,1.8c-3.6,0-6-2.6-6-6.6c0-4,2.7-6.6,6.2-6.6
			c1.5,0,2.8,0.4,3.7,1.2v1.8c-1.1-1-2.3-1.4-3.7-1.4c-2.7,0-4.6,2-4.6,5.1c0,3.1,1.7,5.2,4.4,5.2C69,101.8,70,101.5,70.8,100.8z"/>
		<path class="st1" d="M80.8,103.1l-5-12.9h1.7l4,10.7l4-10.7h1.7l-5,12.9H80.8z"/>
		<path class="st1" d="M95.9,90.2l5,12.9h-1.7l-1.5-3.9h-5.3l-1.5,3.9h-1.7l5-12.9H95.9z M93,97.7h4.2l-2.1-5.5L93,97.7z"/>
		<path class="st1" d="M106.6,97.6v5.5h-1.7V90.2h4.7c2.6,0,4.3,1.3,4.3,3.7c0,2.1-1.3,3.3-3.3,3.6l3.8,5.5h-1.9l-3.7-5.5H106.6z
			 M106.6,96.2h3c1.7,0,2.7-0.9,2.7-2.3c0-1.4-1-2.3-2.7-2.3h-3V96.2z"/>
		<path class="st1" d="M126.8,90.2v1.5h-6.6v4.1h6v1.5h-6v4.4h6.6v1.5h-8.2V90.2H126.8z"/>
		<path class="st1" d="M133.2,97.6v5.5h-1.7V90.2h4.7c2.6,0,4.3,1.3,4.3,3.7c0,2.1-1.3,3.3-3.3,3.6l3.8,5.5h-1.9l-3.7-5.5H133.2z
			 M133.2,96.2h3c1.7,0,2.7-0.9,2.7-2.3c0-1.4-1-2.3-2.7-2.3h-3V96.2z"/>
		<path class="st1" d="M161.9,103.1h-1.2l-7.2-10.2v10.2h-1.6V90.2h1.6l6.9,9.8v-9.8h1.6V103.1z"/>
		<path class="st1" d="M172.6,90.2l5,12.9h-1.7l-1.5-3.9h-5.3l-1.5,3.9H166l5-12.9H172.6z M169.7,97.7h4.2l-2.1-5.5L169.7,97.7z
			 M171.8,89.5c-1,0-1.8-0.8-1.8-1.8c0-1,0.8-1.8,1.8-1.8c1,0,1.8,0.8,1.8,1.8C173.6,88.7,172.8,89.5,171.8,89.5z M171.8,86.7
			c-0.5,0-0.9,0.4-0.9,1c0,0.5,0.4,0.9,0.9,0.9c0.5,0,0.9-0.4,0.9-0.9C172.7,87.1,172.3,86.7,171.8,86.7z"/>
		<path class="st1" d="M183.3,97.6v5.5h-1.7V90.2h4.7c2.6,0,4.3,1.3,4.3,3.7c0,2.1-1.3,3.3-3.3,3.6l3.8,5.5h-1.9l-3.7-5.5H183.3z
			 M183.3,96.2h3c1.7,0,2.7-0.9,2.7-2.3c0-1.4-1-2.3-2.7-2.3h-3V96.2z"/>
	</g>
	<g>
		<path class="st1" d="M268.4,90.2h4.1c3.8,0,6.2,2.5,6.2,6.4c0,3.9-2.5,6.4-6.2,6.4h-4.1V90.2z M272.5,101.6c2.9,0,4.6-1.9,4.6-4.9
			c0-3-1.7-5-4.6-5h-2.5v9.9H272.5z"/>
		<path class="st1" d="M291.4,90.2v1.5h-6.6v4.1h6v1.5h-6v4.4h6.6v1.5h-8.2V90.2H291.4z"/>
		<path class="st1" d="M295.2,90.2h10.6v1.5h-4.5v11.4h-1.7V91.7h-4.5V90.2z"/>
		<path class="st1" d="M315.8,97.9v5.2h-1.7V90.2h4.8c2.6,0,4.3,1.3,4.3,3.9c0,2.5-1.7,3.9-4.3,3.9H315.8z M318.9,91.6h-3.1v4.8h3.1
			c1.7,0,2.7-0.9,2.7-2.4C321.6,92.6,320.7,91.6,318.9,91.6z"/>
		<path class="st1" d="M331.5,90.2l5,12.9h-1.7l-1.5-3.9H328l-1.5,3.9h-1.7l5-12.9H331.5z M328.6,97.7h4.2l-2.1-5.5L328.6,97.7z"/>
		<path class="st1" d="M339.9,100.3c1.2,1,2.5,1.5,4,1.5c1.7,0,2.7-0.7,2.7-2c0-1.1-0.7-1.6-2.1-2.2l-1.9-0.7
			c-1.5-0.6-2.9-1.4-2.9-3.5c0-2.2,1.9-3.4,4.1-3.4c1.4,0,2.7,0.4,3.7,1v1.7c-1-0.8-2.2-1.3-3.7-1.3c-1.4,0-2.5,0.6-2.5,1.9
			c0,1.1,0.7,1.6,1.9,2l2,0.8c2,0.8,2.9,1.8,2.9,3.6c0,2.2-1.8,3.5-4.3,3.5c-1.7,0-3.2-0.5-4-1.2V100.3z"/>
		<path class="st1" d="M350.5,100.3c1.2,1,2.5,1.5,4,1.5c1.7,0,2.7-0.7,2.7-2c0-1.1-0.7-1.6-2.1-2.2l-1.9-0.7
			c-1.5-0.6-2.9-1.4-2.9-3.5c0-2.2,1.9-3.4,4.1-3.4c1.4,0,2.7,0.4,3.7,1v1.7c-1-0.8-2.2-1.3-3.7-1.3c-1.4,0-2.5,0.6-2.5,1.9
			c0,1.1,0.7,1.6,1.9,2l2,0.8c2,0.8,2.9,1.8,2.9,3.6c0,2.2-1.8,3.5-4.3,3.5c-1.7,0-3.2-0.5-4-1.2V100.3z"/>
		<path class="st1" d="M371.5,90.2v1.5H365v4.1h6v1.5h-6v4.4h6.6v1.5h-8.2V90.2H371.5z"/>
		<path class="st1" d="M377.4,97.6v5.5h-1.7V90.2h4.7c2.6,0,4.3,1.3,4.3,3.7c0,2.1-1.3,3.3-3.3,3.6l3.8,5.5h-1.9l-3.7-5.5H377.4z
			 M377.4,96.2h3c1.7,0,2.7-0.9,2.7-2.3c0-1.4-1-2.3-2.7-2.3h-3V96.2z"/>
		<path class="st1" d="M394,90.2h4.1c3.8,0,6.2,2.5,6.2,6.4c0,3.9-2.5,6.4-6.2,6.4H394V90.2z M398.1,101.6c2.9,0,4.6-1.9,4.6-4.9
			c0-3-1.7-5-4.6-5h-2.5v9.9H398.1z"/>
		<path class="st1" d="M410.2,103.1h-1.7V90.2h1.7V103.1z"/>
		<path class="st1" d="M423.7,100.8v-3h-2.8v-1.4h4.4v5c-1.2,1.4-2.9,1.8-4.5,1.8c-3.6,0-6-2.6-6-6.6c0-4,2.7-6.6,6.2-6.6
			c1.5,0,2.8,0.4,3.7,1.2v1.8c-1.1-1-2.3-1.4-3.7-1.4c-2.7,0-4.6,2-4.6,5.1c0,3.1,1.7,5.2,4.4,5.2
			C421.9,101.8,422.8,101.5,423.7,100.8z"/>
	</g>
</g>
</svg>
